<svg xmlns="http://www.w3.org/2000/svg" width="450" height="500" viewBox="0 0 450 500"><g transform="translate(-40.771 -35.064)"><g transform="translate(40.771 35.064)"><path d="M265.752,535.064a61.841,61.841,0,0,1-42.645-16.957L106.753,405.91c-42.553-41.027-65.982-95.6-65.982-153.658S64.2,139.631,106.753,98.595c42.485-40.968,98.956-63.531,159.018-63.531S382.3,57.626,424.784,98.595c42.553,41.032,65.987,95.6,65.987,153.658S467.337,364.883,424.784,405.91L308.47,518.063A61.931,61.931,0,0,1,265.752,535.064ZM264.7,75.842a184.74,184.74,0,0,0-128.559,51.764c-34.545,33.3-53.567,77.575-53.567,124.646S101.6,343.6,136.147,376.913L252.456,489.066a19.516,19.516,0,0,0,26.679-.054L395.4,376.913c34.487-33.256,53.479-77.522,53.479-124.656s-18.992-91.4-53.484-124.661A184.789,184.789,0,0,0,266.749,75.842H264.7Z" transform="translate(-40.771 -35.064)"/></g><g transform="translate(181.366 170.628)"><path d="M154.076,226.1c-46.542,0-84.405-36.612-84.405-81.624s37.863-81.624,84.405-81.624,84.405,36.617,84.405,81.624S200.619,226.1,154.076,226.1Zm0-122.471c-23.492,0-42.6,18.323-42.6,40.841s19.109,40.851,42.6,40.851,42.6-18.328,42.6-40.851S177.569,103.631,154.076,103.631Z" transform="translate(-69.671 -62.853)"/></g></g></svg>