<svg xmlns="http://www.w3.org/2000/svg" width="400" height="400" viewBox="0 0 400 400"><path d="M828,701.6h-.008c-110.281,0-200-89.719-200-200s89.719-200,200-200,200,89.723,200,200C1027.863,611.766,938.147,701.482,828,701.6Zm-.008-360.577c-88.542,0-160.577,72.035-160.577,160.577S739.448,662.182,827.99,662.182,988.566,590.151,988.566,501.6c-.1-88.439-72.142-160.473-160.585-160.577Z" transform="translate(-627.99 -301.605)"/><path d="M778.677,557.565a19.755,19.755,0,0,1-13.915-5.781l-84.108-84.134a19.625,19.625,0,0,1-5.769-13.923V341.549a19.723,19.723,0,0,1,39.416-1.512c.031.623.031,1.254,0,1.888l.007,103.581,78.35,78.354a19.73,19.73,0,0,1-8.7,32.942l-.323.7-4.915.065Z" transform="translate(-494.584 -245.695)"/></svg>